<?xml version="1.0" encoding="UTF-8"?>
<svg version="1.1" xmlns="http://www.w3.org/2000/svg" width="2048" height="1036">
<path d="M0 0 C675.84 0 1351.68 0 2048 0 C2048 341.88 2048 683.76 2048 1036 C1372.16 1036 696.32 1036 0 1036 C0 694.12 0 352.24 0 0 Z " fill="#FEFEFE" transform="translate(0,0)"/>
<path d="M0 0 C4.8595301 0.00457817 9.71904656 -0.00248533 14.57857382 -0.00795984 C24.06514908 -0.01679756 33.55169247 -0.01495752 43.03826892 -0.00913456 C50.75211609 -0.00459763 58.46595441 -0.00401389 66.17980254 -0.00618219 C67.83341553 -0.00664189 67.83341553 -0.00664189 69.52043485 -0.00711088 C71.76062786 -0.00775039 74.00082088 -0.00839882 76.24101389 -0.00905606 C97.18579409 -0.01474239 118.13055671 -0.00822724 139.07533402 0.00254467 C157.01883098 0.01148737 174.96230206 0.00991892 192.90579855 0.00070715 C213.79208979 -0.0100105 234.67836569 -0.01420237 255.5646593 -0.00806832 C257.79396852 -0.00743128 260.02327774 -0.00680254 262.25258696 -0.00618219 C263.34919496 -0.00587364 264.44580295 -0.00556509 265.57564149 -0.00524719 C273.27736161 -0.00352539 280.97907194 -0.00642404 288.68079054 -0.0111413 C298.07005195 -0.01676639 307.45927995 -0.01519918 316.84853756 -0.00457981 C321.63235272 0.00065368 326.41611229 0.00277338 331.19992697 -0.00387812 C335.58847156 -0.00988756 339.97690959 -0.00648116 344.36544467 0.00407699 C345.94309227 0.00628992 347.52074908 0.00522287 349.09839063 0.00032541 C372.73658881 -0.0673606 388.00077863 3.91744312 405.17752707 20.62473059 C417.10461706 33.29445071 418.05169395 46.98499976 418.00853598 63.6600852 C418.01155993 65.3201703 418.01545064 66.980254 418.02012855 68.64033526 C418.03038676 73.18345887 418.02823223 77.72650338 418.02394795 82.26963341 C418.02147661 87.17720756 418.03050025 92.08476287 418.03798544 96.99233007 C418.05072552 106.60201078 418.0525268 116.21166354 418.05018518 125.82135127 C418.0484002 133.63891852 418.05015553 141.45647731 418.05440962 149.27404356 C418.05500481 150.38787142 418.0556 151.50169928 418.05621323 152.6492795 C418.05742503 154.91233181 418.05863916 157.17538411 418.0598556 159.43843641 C418.07072959 180.65799923 418.06856999 201.87754616 418.06247076 223.09710988 C418.05730819 242.47542021 418.06853985 261.85368017 418.08756898 281.23198054 C418.10698264 301.15565192 418.11519679 321.07929952 418.11144572 341.00298041 C418.1095382 352.17787643 418.11197685 363.35272966 418.12616026 374.52761793 C418.13812047 384.04698399 418.13942764 393.56628094 418.1273701 403.08564804 C418.1215123 407.93482709 418.12029504 412.78388005 418.1323725 417.63305044 C418.21748455 454.26842038 418.21748455 454.26842038 415.11304092 470.31594932 C414.73625765 472.3231485 414.42701637 474.33187521 414.13479197 476.35300684 C411.94135009 491.22413673 404.37402416 505.46182601 396.74783957 518.26144934 C395.97053488 519.57049231 395.97053488 519.57049231 395.17752707 520.90598059 C388.23258431 532.19555033 380.07692909 542.19641392 370.95047629 551.76852942 C368.00479449 554.75987893 368.00479449 554.75987893 365.74783957 558.26144934 C365.08783957 558.26144934 364.42783957 558.26144934 363.74783957 558.26144934 C363.50312226 558.83106736 363.25840495 559.40068539 363.00627196 559.98756456 C361.52310256 562.66753081 359.78052256 564.47756916 357.61292136 566.64360571 C356.74666129 567.51406027 355.88040122 568.38451483 354.98789084 569.2813468 C354.02564572 570.23810858 353.06330106 571.19477027 352.10086691 572.15134192 C351.0885121 573.16477 350.07659048 574.17863096 349.06506979 575.1928916 C346.31723996 577.94556852 343.56319961 580.69195378 340.80787861 583.43712974 C337.92020576 586.31600828 335.03781708 589.20016856 332.15473044 592.08363867 C327.30749665 596.92993569 322.45640609 601.77234466 317.60282004 606.61227942 C312.00557343 612.1938403 306.41353 617.78057001 300.82448864 623.37034637 C294.86161205 629.33390103 288.89492284 635.29362996 282.927127 641.2522614 C281.21520467 642.96206096 279.50398616 644.6725622 277.79292548 646.38322401 C275.09158713 649.08355025 272.38768563 651.78128501 269.68186438 654.47711897 C268.69426082 655.46182593 267.70747412 656.44735302 266.72160971 657.43380117 C261.75063128 662.40660731 256.73503787 667.25099582 251.40042174 671.83303881 C249.50138163 673.47447542 247.70350326 675.19113781 245.9372927 676.97433996 C245.30303366 677.61190222 244.66877463 678.24946447 244.01529562 678.9063468 C243.35984763 679.57009314 242.70439963 680.23383947 242.02908957 680.91769934 C241.32691306 681.62366247 240.62473654 682.32962561 239.90128195 683.05698156 C237.68099354 685.28936292 235.46400002 687.52497045 233.24783957 689.76144934 C230.32374478 692.71235312 227.396209 695.65978137 224.46658957 698.60519934 C223.81114157 699.26894567 223.15569357 699.93269201 222.48038352 700.61655188 C218.60489623 704.51222271 214.61472703 708.20410889 210.44010031 711.77811193 C208.39879064 713.56740534 206.57758579 715.5081927 204.74783957 717.51144934 C193.2970969 729.10062931 177.94507109 737.18669846 163.56033957 744.51144934 C162.91903098 744.8410465 162.27772238 745.17064367 161.6169802 745.51022863 C157.5146478 747.55772829 153.40125467 749.11714748 149.03568137 750.51096106 C146.76323781 751.2563982 144.54034875 752.08151284 142.31033957 752.94504309 C121.46494077 760.99127183 101.90553389 763.25104757 79.72112143 763.81586218 C78.92543932 763.83683371 78.12975722 763.85780524 77.30996353 763.87941228 C59.77949186 764.33432293 42.2547403 764.40582781 24.71931529 764.39217401 C20.28259396 764.38985424 15.84587606 764.39343101 11.40915549 764.39615393 C2.78009117 764.40054032 -5.84896433 764.39966806 -14.47802896 764.39674129 C-21.49690152 764.39446121 -28.51577166 764.39418585 -35.53464448 764.3952651 C-36.54241448 764.39541834 -37.55018447 764.39557157 -38.58849294 764.39572944 C-40.63702055 764.39604923 -42.68554817 764.39637345 -44.73407578 764.39670204 C-63.81962827 764.39953524 -82.9051759 764.39630268 -101.9907276 764.39090167 C-118.31932936 764.38642393 -134.64792402 764.38722173 -150.97652566 764.39182043 C-170.03105109 764.39718448 -189.08557232 764.3992729 -208.14009839 764.39620817 C-210.17491372 764.39588967 -212.20972905 764.3955753 -214.24454439 764.3952651 C-215.74559391 764.39503369 -215.74559391 764.39503369 -217.27696766 764.3947976 C-224.28516958 764.3939388 -231.2933688 764.39538127 -238.3015703 764.39774466 C-246.84386179 764.40056274 -255.3861441 764.39976179 -263.92843456 764.39446391 C-268.27537152 764.39185566 -272.62229324 764.39077258 -276.96923006 764.39411306 C-334.72795098 764.43463754 -334.72795098 764.43463754 -340.42012918 759.49582434 C-341.08592996 758.93508215 -341.75173074 758.37433996 -342.4377073 757.79660559 C-343.09835184 757.20750402 -343.75899637 756.61840246 -344.43966043 756.01144934 C-345.44802957 755.15100012 -345.44802957 755.15100012 -346.4767698 754.27316809 C-347.79563345 753.14564883 -349.10679934 752.00905143 -350.40938699 750.8627677 C-352.11406694 749.3814487 -353.85793637 747.97005285 -355.62325418 746.56223059 C-359.20529704 743.42727777 -360.3733094 740.8810509 -361.25216043 736.26144934 C-361.47384837 732.24643448 -361.43287101 728.27724005 -361.25216043 724.26144934 C-361.91216043 724.59144934 -362.57216043 724.92144934 -363.25216043 725.26144934 C-363.94309939 727.84096808 -363.94309939 727.84096808 -364.37716043 730.82394934 C-364.54473855 731.8358634 -364.71231668 732.84777746 -364.88497293 733.89035559 C-365.06673074 735.06404699 -365.06673074 735.06404699 -365.25216043 736.26144934 C-370.59150435 731.64363838 -372.94712804 727.00677896 -373.52427101 719.920349 C-373.63731062 715.68377203 -373.64763148 711.45718627 -373.62638223 707.219625 C-373.6291245 705.5737909 -373.63317801 703.92795855 -373.63842589 702.28213054 C-373.64899923 697.76883024 -373.64089214 693.25572839 -373.62967539 688.74243677 C-373.62082533 683.87015946 -373.62927976 678.99790791 -373.63553751 674.12563086 C-373.64502688 664.57914859 -373.63842209 655.03274192 -373.62627456 645.48626526 C-373.6126342 634.34951182 -373.61429458 623.21277626 -373.61640789 612.07601658 C-373.61959872 592.18004837 -373.60793029 572.28411592 -373.58834207 552.38815832 C-373.56938635 533.12935815 -373.56224169 513.87059997 -373.56783426 494.61179113 C-373.57391294 473.61709542 -373.57367316 452.62241819 -373.56234843 431.62772399 C-373.56114125 429.38141382 -373.55993526 427.13510364 -373.55873048 424.88879347 C-373.55782517 423.23127367 -373.55782517 423.23127367 -373.55690158 421.54026863 C-373.55304303 413.80031019 -373.5534082 406.06035869 -373.55531633 398.32039976 C-373.5574544 388.85679255 -373.55209508 379.39322187 -373.53770278 369.92962488 C-373.53053141 365.11214937 -373.52631821 360.29472664 -373.53094614 355.47724676 C-373.5881115 287.21635804 -373.5881115 287.21635804 -366.25216043 279.26144934 C-365.59216043 279.26144934 -364.93216043 279.26144934 -364.25216043 279.26144934 C-363.92216043 288.50144934 -363.59216043 297.74144934 -363.25216043 307.26144934 C-362.71683697 298.30377739 -362.71683697 298.30377739 -362.20601785 289.34470129 C-361.35112941 276.06543409 -359.03071164 265.30300137 -352.18966043 253.82394934 C-351.31966409 252.33036901 -351.31966409 252.33036901 -350.43209207 250.80661535 C-339.4188902 232.1410194 -325.6583969 216.33373829 -310.33028543 201.10910559 C-309.13312051 199.91313823 -307.93633104 198.71679495 -306.73989236 197.52010107 C-304.25895316 195.04070764 -301.77475125 192.56465104 -299.28780496 190.09128332 C-296.12025561 186.94082377 -292.95943098 183.78371953 -289.80079401 180.62432718 C-287.34053134 178.16433773 -284.87766185 175.70697215 -282.41392648 173.2504611 C-281.24768953 172.08737527 -280.08202994 170.92371017 -278.9169935 169.75942183 C-267.94647342 158.80368034 -267.94647342 158.80368034 -262.05483377 153.85127783 C-259.68096362 151.75769475 -257.47540701 149.51182729 -255.25216043 147.26144934 C-253.8240846 145.82792405 -252.39546513 144.39494027 -250.96648538 142.96231604 C-249.23471535 141.22447137 -247.50295539 139.48661667 -245.7712034 137.74875402 C-236.08121696 128.0256141 -226.38572823 118.30797557 -216.687446 108.59311056 C-210.82379702 102.71916228 -204.96204013 96.84334885 -199.10469949 90.96310949 C-193.97961067 85.81799562 -188.85093544 80.67648768 -183.71804476 75.53915668 C-181.0083519 72.82687462 -178.30039892 70.11290885 -175.59676111 67.3945899 C-173.04844205 64.83254315 -170.49530073 62.27539716 -167.93862092 59.72169447 C-166.57167396 58.35394844 -165.20967036 56.98126728 -163.84790933 55.60835791 C-157.95955431 49.73925498 -151.76691037 44.42268899 -145.25216043 39.26144934 C-144.6829531 38.80125277 -144.11374578 38.34105619 -143.52728975 37.86691427 C-135.34327707 31.27775666 -126.53669384 26.12265749 -117.25216043 21.26144934 C-116.37003885 20.79231115 -115.48791727 20.32317297 -114.57906473 19.83981848 C-106.95398385 15.88830061 -99.18825009 12.84171627 -91.06466043 10.07394934 C-90.42776285 9.85633947 -89.79086526 9.63872961 -89.13466775 9.41452551 C-79.1988024 6.03948257 -69.67808141 3.47352324 -59.25216043 2.26144934 C-58.53230553 2.17470088 -57.81245063 2.08795241 -57.07078195 1.99857521 C-38.08262109 -0.20333593 -19.08253742 -0.02666244 0 0 Z " fill="#000000" transform="translate(414.25216042995453,164.73855066299438)"/>
<path d="M0 0 C0.71655762 0.27827637 1.43311523 0.55655273 2.17138672 0.84326172 C31.30499218 12.31186647 51.16841752 33.80376098 64 62 C64.48194824 63.02697998 64.48194824 63.02697998 64.97363281 64.07470703 C69.97994102 74.81940168 72.7696384 85.21303973 74 97 C74.0928125 97.86383301 74.185625 98.72766602 74.28125 99.61767578 C75.21945941 109.80227398 75.22118135 120.00473496 75.24023438 130.22509766 C75.2498727 133.33393822 75.28095476 136.44209677 75.3125 139.55078125 C75.36799435 149.9304863 74.9906993 160.11083952 73.671875 170.4140625 C73.55515442 171.33206635 73.43843384 172.25007019 73.31817627 173.19589233 C72.13188206 181.55582592 70.06908541 189.34368802 66.09375 196.8125 C64.77768876 199.44462247 63.71303557 202.1409619 62.625 204.875 C58.0816204 215.84225167 51.32414651 224.77834358 44 234 C43.34773437 234.86109375 42.69546875 235.7221875 42.0234375 236.609375 C38.268315 241.045929 33.55118151 244.41728966 29 248 C28.26910156 248.58523438 27.53820312 249.17046875 26.78515625 249.7734375 C19.86614804 255.171634 13.82960577 258.36931387 5 259 C9.68424697 264.41700345 14.46884705 269.72089546 19.375 274.9375 C20.02984375 275.63552734 20.6846875 276.33355469 21.359375 277.05273438 C25.52659895 281.47938037 29.77439507 285.80742817 34.10546875 290.07421875 C35.92792756 291.92673874 37.6260245 293.83622441 39.3125 295.8125 C43.3394441 300.50902966 47.73825436 304.81970719 52.1328125 309.16796875 C52.60879883 309.64024902 53.08478516 310.1125293 53.57519531 310.59912109 C54.99246749 311.99259397 56.42982478 313.36554111 57.8671875 314.73828125 C60 317 60 317 60 319 C52.72671369 319.07682742 45.45353415 319.12892196 38.17993164 319.16479492 C35.71179291 319.17976895 33.24368025 319.20015533 30.77563477 319.22631836 C-2.92382518 319.5742982 -2.92382518 319.5742982 -16.3125 312.375 C-16.97636719 312.03017578 -17.64023437 311.68535156 -18.32421875 311.33007812 C-24.3627337 308.05823685 -29.20686584 303.90581182 -34 299 C-35.02287109 298.02933594 -35.02287109 298.02933594 -36.06640625 297.0390625 C-40.74107556 292.55650289 -44.80675559 287.68835811 -48.82421875 282.61328125 C-49.54222656 281.75089844 -50.26023437 280.88851563 -51 280 C-51.69996094 279.07445312 -52.39992188 278.14890625 -53.12109375 277.1953125 C-57.40022199 273.93225949 -61.13960553 274.47100517 -66.375 274.5625 C-76.60349486 274.44528853 -86.25084858 273.16815631 -96.25 271.1875 C-97.53310059 270.9387915 -98.81620117 270.69008301 -100.13818359 270.43383789 C-111.73032489 268.06789467 -122.33345059 264.76075454 -132.75 259.125 C-133.53503906 258.71636719 -134.32007813 258.30773437 -135.12890625 257.88671875 C-156.07968745 246.73381532 -171.97884016 228.26678655 -182 207 C-182.59651367 205.76660889 -182.59651367 205.76660889 -183.20507812 204.50830078 C-186.30604657 197.9392674 -188.64273559 191.35800285 -190.625 184.375 C-190.92422363 183.33102051 -191.22344727 182.28704102 -191.53173828 181.21142578 C-195.23761836 167.97149326 -197.595429 154.77423119 -198 141 C-198.02723145 140.14019531 -198.05446289 139.28039062 -198.08251953 138.39453125 C-198.90830103 107.93929415 -193.25073518 79.51351585 -180 52 C-179.68869141 51.33677734 -179.37738281 50.67355469 -179.05664062 49.99023438 C-167.34529589 25.50757773 -143.5867386 8.42272293 -118.75 -0.8125 C-112.55697916 -2.89307667 -106.40105618 -4.68715302 -100 -6 C-99.37109863 -6.13680176 -98.74219727 -6.27360352 -98.09423828 -6.41455078 C-67.55108617 -12.83897002 -29.07934519 -11.56389655 0 0 Z " fill="#FDFDFD" transform="translate(618,412)"/>
<path d="M0 0 C0.95496872 -0.0049649 1.90993744 -0.00992981 2.8938446 -0.01504517 C6.0833711 -0.02974954 9.27284736 -0.03649323 12.46240234 -0.04199219 C14.10751863 -0.04623325 14.10751863 -0.04623325 15.7858696 -0.05056 C21.62466424 -0.06560971 27.46343395 -0.07479401 33.30224609 -0.07910156 C38.07934405 -0.08343934 42.85625662 -0.09713672 47.63330078 -0.12011719 C147.69693978 -0.59187877 147.69693978 -0.59187877 175.92333984 22.16113281 C176.79216797 22.83144531 177.66099609 23.50175781 178.55615234 24.19238281 C188.90228034 32.79708332 194.9382229 46.7145255 196.54833984 59.78613281 C198.30831246 80.68180772 195.40603685 97.60343473 181.92333984 114.16113281 C174.76311715 121.71191311 167.23259322 124.73862243 156.92333984 125.16113281 C157.22798112 127.13085086 157.22798112 127.13085086 157.92333984 129.16113281 C160.41368371 130.45773715 160.41368371 130.45773715 162.92333984 131.16113281 C162.92333984 130.50113281 162.92333984 129.84113281 162.92333984 129.16113281 C163.58333984 129.16113281 164.24333984 129.16113281 164.92333984 129.16113281 C165.04708984 129.75925781 165.17083984 130.35738281 165.29833984 130.97363281 C165.8780997 133.4234463 165.8780997 133.4234463 167.92333984 136.16113281 C170.23264681 137.07266755 170.23264681 137.07266755 172.92333984 137.78613281 C184.31719892 141.71813124 193.45377907 152.51394676 199.17333984 162.91113281 C208.36608468 183.47169158 205.95385022 205.46310605 198.66503906 226.28125 C196.85585922 230.86672885 194.12981877 234.46736535 190.92333984 238.16113281 C190.06095703 239.15886719 189.19857422 240.15660156 188.31005859 241.18457031 C180.36406313 250.17956501 172.9013872 257.14975599 161.92333984 262.16113281 C160.96814453 262.65613281 160.01294922 263.15113281 159.02880859 263.66113281 C137.14920507 274.66973836 110.50243845 275.30285313 86.50927734 275.36425781 C85.75161701 275.36708519 84.99395668 275.36991257 84.21333694 275.37282562 C80.21302205 275.38767706 76.21274199 275.39699808 72.21240234 275.40136719 C68.11645002 275.40686962 64.02082705 275.43097527 59.92497826 275.45933914 C56.7385466 275.47807205 53.55219325 275.48317648 50.36571121 275.48470306 C48.85643311 275.48769983 47.34715539 275.4956256 45.83793259 275.50888824 C31.42809246 275.62661937 16.84872511 273.49595671 5.92333984 263.16113281 C3.5174068 260.55330329 1.21819058 257.86653024 -1.07666016 255.16113281 C-1.55619141 254.64292969 -2.03572266 254.12472656 -2.52978516 253.59082031 C-13.47574494 241.52388875 -10.22152571 220.99463642 -10.20605469 205.86328125 C-10.20741167 203.62656119 -10.20919327 201.38984136 -10.21136475 199.15312195 C-10.2159006 193.1147554 -10.21416626 187.07640604 -10.21098566 181.03803921 C-10.2084459 174.71377454 -10.21080375 168.38951131 -10.21237183 162.06524658 C-10.21430327 150.78228815 -10.21120875 139.4993368 -10.20611249 128.21638003 C-10.20163242 117.98002425 -10.20243264 107.7436798 -10.20703125 97.50732422 C-10.21237631 85.60387698 -10.21437921 73.70043662 -10.21141899 61.79698777 C-10.20985724 55.5009854 -10.20966 49.20499083 -10.21295547 42.90898895 C-10.21583177 37.00250274 -10.21386302 31.09603808 -10.20806122 25.18955421 C-10.20673304 23.01623635 -10.20712871 20.84291669 -10.20932388 18.66959953 C-10.21203268 15.71694359 -10.2086578 12.76435793 -10.2036438 9.81170654 C-10.20587452 8.94024168 -10.20810524 8.06877681 -10.21040356 7.17090392 C-10.18216667 -1.32594116 -7.65252895 0.00939194 0 0 Z " fill="#020202" transform="translate(994.07666015625,406.8388671875)"/>
<path d="M0 0 C1.55810539 0.00056512 3.11621132 0.00024559 4.67431641 -0.00088501 C8.87611702 -0.00145558 13.07780194 0.01025057 17.27957582 0.02426291 C21.68111862 0.03681981 26.08266447 0.03794466 30.48422241 0.04031372 C38.8066671 0.04651397 47.12905883 0.06290499 55.45148027 0.0830127 C64.93157272 0.10541712 74.41166778 0.11637653 83.89178014 0.12640357 C103.38149665 0.14727259 122.87116398 0.18242011 142.36083984 0.22705078 C144.28944446 9.42537596 142.22793011 16.26158088 137.36083984 24.22705078 C129.41411714 35.78764024 121.5421451 42.50071521 108.14599609 46.61376953 C106.36037684 47.0811804 106.36037684 47.0811804 105.36083984 48.22705078 C102.25576734 48.32238731 99.17297527 48.35256204 96.06762695 48.34057617 C95.09212387 48.3407222 94.11662079 48.34086823 93.11155701 48.34101868 C89.87041032 48.34031911 86.62932031 48.33252469 83.38818359 48.32470703 C81.14758841 48.32284301 78.90699283 48.32141903 76.66639709 48.32041931 C70.75624475 48.31659291 64.8461168 48.30676158 58.93597412 48.29571533 C51.85168716 48.28370988 44.76739206 48.27909955 37.68309784 48.27326202 C26.90899485 48.26354989 16.13494544 48.24439418 5.36083984 48.22705078 C5.36083984 70.33705078 5.36083984 92.44705078 5.36083984 115.22705078 C48.59083984 115.22705078 91.82083984 115.22705078 136.36083984 115.22705078 C134.1034141 129.90031811 134.1034141 129.90031811 130.98583984 135.72705078 C130.40060547 136.85111328 129.81537109 137.97517578 129.21240234 139.13330078 C124.17635635 147.54795991 117.12495963 153.43257276 108.08740234 157.20751953 C106.18376655 158.12108238 106.18376655 158.12108238 105.34220886 160.26239014 C102.56943831 163.01177863 100.50231798 162.69978817 96.70491028 162.72473145 C95.33250435 162.70315979 95.33250435 162.70315979 93.93237305 162.68115234 C92.96633148 162.68173645 92.00028992 162.68232056 91.00497437 162.68292236 C87.80682641 162.68013211 84.60960654 162.64899512 81.41162109 162.61767578 C79.1963095 162.61021676 76.98099132 162.60452223 74.76567078 162.6005249 C68.930998 162.58524204 63.09672263 162.54593703 57.26220703 162.50170898 C50.26388512 162.45362528 43.26543043 162.43523494 36.26699066 162.41189575 C25.63133054 162.37308802 14.99654263 162.29645178 4.36083984 162.22705078 C4.36083984 183.67705078 4.36083984 205.12705078 4.36083984 227.22705078 C49.90083984 227.22705078 95.44083984 227.22705078 142.36083984 227.22705078 C142.36083984 241.95118871 142.36083984 241.95118871 139.36083984 247.22705078 C139.00892578 247.85869141 138.65701172 248.49033203 138.29443359 249.14111328 C135.28744582 254.28177225 131.69445476 259.1226699 127.36083984 263.22705078 C126.70083984 263.22705078 126.04083984 263.22705078 125.36083984 263.22705078 C125.36083984 263.88705078 125.36083984 264.54705078 125.36083984 265.22705078 C124.00537109 266.44580078 124.00537109 266.44580078 122.17333984 267.72705078 C121.58166016 268.14986328 120.98998047 268.57267578 120.38037109 269.00830078 C110.03677658 275.25047001 97.1534445 274.51402027 85.49462891 274.45410156 C83.93622851 274.45353613 82.37782758 274.45385658 80.81942749 274.45498657 C76.62600921 274.45555593 72.43270741 274.44386983 68.23931599 274.42983866 C63.84312354 274.41726114 59.44692787 274.4161553 55.05072021 274.41378784 C46.74250842 274.40759358 38.43434981 274.3912108 30.12616134 274.37108886 C20.66053255 274.34866563 11.19490111 274.33772033 1.72925234 274.32769799 C-17.72691521 274.30684256 -37.1830334 274.27170689 -56.63916016 274.22705078 C-56.68483041 244.98626413 -56.72020275 215.74548002 -56.74129082 186.50466497 C-56.74379209 183.04892698 -56.74638075 179.59318906 -56.74902344 176.13745117 C-56.74954806 175.44950457 -56.75007268 174.76155798 -56.7506132 174.05276451 C-56.75930494 162.92805942 -56.77506811 151.80337509 -56.79346575 140.67868229 C-56.81219909 129.25533348 -56.82313453 117.83200148 -56.82733715 106.40863687 C-56.82994179 99.9958504 -56.83605297 93.58311096 -56.85062027 87.17033958 C-56.86422949 81.1301985 -56.86837602 75.09012368 -56.86537552 69.04996872 C-56.86592418 66.8373192 -56.86988164 64.6246674 -56.87757111 62.41203117 C-56.88758463 59.3811084 -56.88510574 56.35043279 -56.87966919 53.31950378 C-56.88549487 52.45273598 -56.89132056 51.58596818 -56.89732277 50.69293469 C-56.83153302 37.03692221 -53.61985289 25.10990421 -44.07666016 14.97705078 C-30.33261723 2.16305587 -18.09719254 -0.0925322 0 0 Z " fill="#FDFDFD" transform="translate(253.63916015625,406.77294921875)"/>
<path d="M0 0 C19.8 0 39.6 0 60 0 C60.0226477 19.89861773 60.04103761 39.79722489 60.05181217 59.69585228 C60.05694984 68.93688801 60.06394387 78.17791512 60.07543945 87.41894531 C60.08546406 95.48139662 60.09187178 103.54384167 60.09408849 111.60629904 C60.0953825 115.86803756 60.09838412 120.1297582 60.10573006 124.39149094 C60.16236301 158.51243134 60.16236301 158.51243134 59 173 C64.90023042 169.22805702 68.94444782 164.74960957 73.07788086 159.16552734 C77.23663525 153.57904682 81.85658652 148.53588346 86.62646484 143.47070312 C88.86645203 141.07225257 91.05140911 138.62386442 93.25 136.1875 C98.30043051 130.62932966 103.60217627 125.33397711 108.96191406 120.07495117 C111.42353693 117.6474273 113.74619941 115.34131804 115.8125 112.5625 C116.204375 112.046875 116.59625 111.53125 117 111 C117.66 111 118.32 111 119 111 C119.21011719 110.46117187 119.42023438 109.92234375 119.63671875 109.3671875 C121.51471297 106.1062577 124.12131671 103.70879629 126.8125 101.125 C129.9340672 98.10761366 132.96316468 95.11894363 135.69921875 91.7421875 C138 89 138 89 141 87 C142.19232613 84.94996045 142.19232613 84.94996045 143 83 C151.29274802 82.97684045 159.58548254 82.95906645 167.87825489 82.94818783 C171.72882542 82.94296692 175.57937384 82.93588362 179.42993164 82.92456055 C183.14519659 82.91370356 186.86044025 82.90771718 190.57571983 82.90512276 C191.99390689 82.90327359 193.41209276 82.89966269 194.83027077 82.89426994 C196.81497692 82.88702236 198.79970444 82.88659162 200.78442383 82.88647461 C201.91471512 82.884254 203.04500641 82.88203339 204.20954895 82.87974548 C207 83 207 83 210 84 C209.73110343 87.55530494 209.52551447 89.4594324 206.99707031 92.06030273 C206.11631836 92.69911377 205.23556641 93.3379248 204.328125 93.99609375 C197.54751787 99.2283819 191.61070992 105.12165238 185.59179688 111.20239258 C183.74405402 113.06850509 181.88832035 114.92637712 180.03125 116.78320312 C172.37084012 124.46636244 165.11698851 132.33586068 158.26171875 140.75 C157 142 157 142 155 142 C154.78730469 142.54140625 154.57460937 143.0828125 154.35546875 143.640625 C152.50981561 146.85323161 149.96038119 149.20552958 147.3125 151.75 C143.21778937 155.75700599 139.29427313 159.80517988 135.60546875 164.1953125 C133.32495645 166.75880807 130.77629067 169.01326478 128.1875 171.26171875 C126.78793857 172.96910915 126.78793857 172.96910915 126.95703125 175.32421875 C128.40108434 179.02899915 130.9155373 181.37786922 133.6875 184.125 C138.936876 189.5391252 143.53848154 195.19002026 147.9375 201.3125 C152.4296754 207.5602597 157.0483427 213.6090564 162 219.5 C166.90306983 225.34304722 171.52289068 231.3246768 176 237.5 C183.41060007 247.71233332 191.38831111 257.40455467 199.5625 267.01171875 C203.74035669 271.98017679 207.55349933 277.08474077 211.125 282.5 C211.52823486 283.10030029 211.93146973 283.70060059 212.34692383 284.3190918 C213.4453125 286.03125 213.4453125 286.03125 215 289 C214.67 289.99 214.34 290.98 214 292 C207.58221635 292.2730093 201.16387397 292.50178712 194.7434082 292.7019043 C192.56597348 292.7747481 190.38883538 292.85718989 188.2121582 292.94995117 C171.93463985 293.63457215 157.52275828 293.30460186 144 283 C142.989375 282.236875 141.97875 281.47375 140.9375 280.6875 C134.71961603 274.99879765 129.71285748 268.43144915 124.875 261.5625 C120.49474157 255.42033213 116.03835378 249.35382369 111.4375 243.375 C110.90568115 242.68229004 110.3738623 241.98958008 109.82592773 241.27587891 C107.66252091 238.45947354 105.49718734 235.64457202 103.328125 232.83251953 C101.69135951 230.70577606 100.06364749 228.57236812 98.4375 226.4375 C97.94886475 225.8069873 97.46022949 225.17647461 96.95678711 224.52685547 C89 214.03728978 89 214.03728978 89 209 C79.83743942 211.77151945 73.28010294 217.04615434 66 223 C65.12712845 223.5759491 64.2542569 224.15189819 63.35493469 224.74530029 C60.7460351 226.82069477 60.7460351 226.82069477 60.36076355 229.9866333 C60.35410172 231.15023376 60.34743988 232.31383423 60.34057617 233.51269531 C60.32485062 234.47917496 60.32485062 234.47917496 60.30880737 235.46517944 C60.28009444 237.58665345 60.28634317 239.70649182 60.29296875 241.828125 C60.27985117 243.30216514 60.26454675 244.7761873 60.24714661 246.25018311 C60.20728943 250.1234688 60.19710582 253.99628439 60.19311523 257.86975098 C60.18214359 262.52053367 60.13429245 267.17106572 60.09262848 271.82165527 C60.03350851 278.88131456 60.02121958 285.93966685 60 293 C40.2 293 20.4 293 0 293 C0 196.31 0 99.62 0 0 Z " fill="#010101" transform="translate(1699,389)"/>
<path d="M0 0 C0.80694305 0.00149048 1.61388611 0.00298096 2.44528198 0.0045166 C27.5243297 0.08767385 54.76527664 3.60239576 73.5234375 22.046875 C87.85624272 37.4985981 93.12956279 54.04763241 92.96557617 74.90332031 C92.96472797 76.43216434 92.96520881 77.96100958 92.96690369 79.48985291 C92.96775753 83.60275713 92.950232 87.71539399 92.92918181 91.82823658 C92.91031196 96.1403394 92.90865651 100.45244967 92.90510559 104.7645874 C92.8958152 112.91346037 92.87124253 121.06221128 92.84105712 129.21103072 C92.80741902 138.49527471 92.79100354 147.7795248 92.77597082 157.06381464 C92.74468996 176.14679283 92.68971591 195.22960389 92.625 214.3125 C73.155 214.3125 53.685 214.3125 33.625 214.3125 C33.295 206.7225 32.965 199.1325 32.625 191.3125 C30.975 193.2925 29.325 195.2725 27.625 197.3125 C24.90625 199.2890625 24.90625 199.2890625 22.125 200.9375 C18.37777839 203.17951743 15.0312793 205.58532069 11.625 208.3125 C7.04616448 211.56094302 2.01804897 212.89230081 -3.3125 214.4375 C-4.19357422 214.70175781 -5.07464844 214.96601562 -5.98242188 215.23828125 C-14.64645001 217.79530528 -22.47854528 218.49465554 -31.5 218.5 C-32.56476563 218.51224609 -33.62953125 218.52449219 -34.7265625 218.53710938 C-55.04670923 218.57409993 -73.34778667 212.86918283 -88.1875 198.6640625 C-94.20989623 192.18998656 -98.04036184 185.80757046 -100.375 177.3125 C-100.70628906 176.36117187 -101.03757812 175.40984375 -101.37890625 174.4296875 C-106.79915087 157.46751021 -105.24423337 138.6043331 -98.375 122.3125 C-89.94355726 106.42826412 -73.85829371 96.70887092 -57.15234375 91.26171875 C-33.80609832 84.79468392 -9.22699755 83.68206578 14.83081055 82.26342773 C15.78762222 82.20619537 16.7444339 82.14896301 17.73023987 82.08999634 C19.54155484 81.98290814 21.35310792 81.87975322 23.16490173 81.78109741 C23.97302811 81.73385529 24.78115448 81.68661316 25.61376953 81.63793945 C26.67170212 81.57942558 26.67170212 81.57942558 27.75100708 81.51972961 C29.85074263 81.3539415 29.85074263 81.3539415 32.625 80.3125 C34.55718805 76.4481239 34.01083841 72.72164898 32.90625 68.6875 C29.9439624 60.08731019 26.41423548 52.45633475 18.625 47.3125 C1.17216968 40.60634816 -16.51032639 43.61262199 -34.25 47.625 C-35.1174585 47.81344482 -35.98491699 48.00188965 -36.87866211 48.19604492 C-43.80746225 49.8385598 -49.84594204 52.52751057 -55.46044922 56.95825195 C-57.89058032 58.6771932 -59.46377157 58.55510237 -62.375 58.3125 C-65.39022496 51.92368319 -68.07689208 45.53536503 -70.3984375 38.86328125 C-71.29191078 36.52952904 -72.33412549 34.48203916 -73.5625 32.3125 C-76.07738583 27.57859726 -76.18114298 22.58541106 -76.375 17.3125 C-66.6926628 10.7285107 -56.47286467 6.48876792 -45.0625 4.0625 C-43.99938599 3.83614868 -43.99938599 3.83614868 -42.91479492 3.60522461 C-28.67530504 0.82009022 -14.47544151 -0.06655289 0 0 Z " fill="#010101" transform="translate(1323.375,467.6875)"/>
<path d="M0 0 C23.37765445 -0.66061899 44.34025378 4.52023198 62.22265625 20.15625 C79.26913038 40.10803624 80.40666329 59.55424084 80.33618164 84.96435547 C80.33589866 86.38512164 80.33605966 87.80588796 80.33662415 89.22665405 C80.3369078 93.0356341 80.33108172 96.84458182 80.32405019 100.65355444 C80.31774396 104.65202 80.31720716 108.65048653 80.31602478 112.6489563 C80.3129327 120.19918133 80.30474829 127.74939166 80.29467529 135.29961026 C80.28344776 143.90436409 80.27798706 152.50911867 80.27297986 161.11387801 C80.26256361 178.79467867 80.24424492 196.47545921 80.22265625 214.15625 C60.75265625 214.15625 41.28265625 214.15625 21.22265625 214.15625 C21.16207031 204.45476562 21.10148437 194.75328125 21.0390625 184.7578125 C20.99855943 178.60546475 20.95782007 172.45312007 20.91601562 166.30078125 C20.8497309 156.53924071 20.78440065 146.77770057 20.7253418 137.01611328 C20.68231979 129.90592201 20.63599774 122.79576105 20.5857777 115.68561685 C20.55932108 111.9238199 20.53447305 108.16202839 20.51358223 104.40019608 C20.49382961 100.85273558 20.46963374 97.305332 20.44216537 93.75792313 C20.42850212 91.84903153 20.41942846 89.94010876 20.41053772 88.03118896 C20.29630965 74.51737419 19.86557503 65.21815677 10.15625 54.9765625 C2.34595082 47.83317691 -4.52893888 47.73886116 -14.83984375 47.65625 C-16.09990234 47.615 -17.35996094 47.57375 -18.65820312 47.53125 C-29.0667966 47.44518411 -36.72834027 49.91216012 -44.7421875 56.6484375 C-46.79342065 59.12616468 -48.83119799 61.59469059 -50.77734375 64.15625 C-51.29167969 64.82785156 -51.80601563 65.49945312 -52.3359375 66.19140625 C-68.79867133 89.98176641 -61.0575439 137.76904864 -61.30957031 165.44769287 C-61.36953485 171.92688556 -61.43520214 178.40602286 -61.4998703 184.88516998 C-61.59663768 194.6421618 -61.68633728 204.39919512 -61.77734375 214.15625 C-81.90734375 214.15625 -102.03734375 214.15625 -122.77734375 214.15625 C-123.10734375 145.18625 -123.43734375 76.21625 -123.77734375 5.15625 C-119.23726134 4.5076668 -115.43112094 4.03057519 -110.94970703 4.02685547 C-109.85232208 4.02370331 -108.75493713 4.02055115 -107.6242981 4.01730347 C-106.46050629 4.0193277 -105.29671448 4.02135193 -104.09765625 4.0234375 C-102.88915009 4.02248077 -101.68064392 4.02152405 -100.43551636 4.02053833 C-97.89223173 4.01985991 -95.34894534 4.02169058 -92.80566406 4.02587891 C-88.89514335 4.03125991 -84.98473604 4.02590816 -81.07421875 4.01953125 C-78.60286433 4.02019154 -76.13150998 4.02147169 -73.66015625 4.0234375 C-72.48421906 4.02141327 -71.30828186 4.01938904 -70.09671021 4.01730347 C-69.01823822 4.02045563 -67.93976624 4.02360779 -66.82861328 4.02685547 C-65.39801071 4.02804886 -65.39801071 4.02804886 -63.93850708 4.02926636 C-61.77734375 4.15625 -61.77734375 4.15625 -60.77734375 5.15625 C-60.46236674 9.64004031 -60.12169026 14.95343728 -61.77734375 19.15625 C-64.27734375 20.28125 -64.27734375 20.28125 -66.77734375 21.15625 C-67.27234375 22.64125 -67.27234375 22.64125 -67.77734375 24.15625 C-61.71914199 22.56198638 -56.72157163 20.13185339 -51.40234375 16.90625 C-50.74911133 16.51099121 -50.09587891 16.11573242 -49.42285156 15.70849609 C-46.54016958 13.93856666 -43.74475181 12.1327343 -41 10.15234375 C-29.19412418 1.72997009 -14.12398929 0.58423947 0 0 Z " fill="#010101" transform="translate(1577.77734375,467.84375)"/>
<path d="M0 0 C1.39752381 1.20349611 2.77267382 2.43343079 4.125 3.6875 C4.87136719 4.34363281 5.61773438 4.99976563 6.38671875 5.67578125 C17.28134368 15.79353988 22.53501876 27.615335 26.125 41.6875 C26.43308594 42.87601562 26.74117187 44.06453125 27.05859375 45.2890625 C30.73036626 60.85456702 30.38426675 76.79292283 30.125 92.6875 C30.11774902 93.39438965 30.11049805 94.1012793 30.10302734 94.82958984 C29.82164691 113.7011554 23.88481049 132.24951103 13.125 147.6875 C12.70621582 148.31261475 12.28743164 148.93772949 11.85595703 149.58178711 C8.15652906 154.86263551 4.06168816 158.39428998 -1.25 162 C-1.96671875 162.51111328 -2.6834375 163.02222656 -3.421875 163.54882812 C-11.9409284 169.46142024 -20.04443647 171.84100439 -30.375 171.85546875 C-31.20652588 171.85879715 -32.03805176 171.86212555 -32.89477539 171.86555481 C-34.65656991 171.87061377 -36.418374 171.87296345 -38.18017578 171.87280273 C-40.83773286 171.87496961 -43.49486115 171.89308146 -46.15234375 171.91210938 C-70.89346961 172.00005263 -70.89346961 172.00005263 -79.0625 166 C-80.05121094 165.28328125 -81.03992188 164.5665625 -82.05859375 163.828125 C-82.98800781 163.12171875 -83.91742187 162.4153125 -84.875 161.6875 C-85.69097656 161.10484375 -86.50695312 160.5221875 -87.34765625 159.921875 C-97.76805093 152.27191115 -103.63179623 143.3420137 -108.875 131.6875 C-109.66583984 130.01107422 -109.66583984 130.01107422 -110.47265625 128.30078125 C-112.06423807 124.19990888 -112.8413067 120.33015994 -113.5 116 C-113.62117188 115.27361328 -113.74234375 114.54722656 -113.8671875 113.79882812 C-118.98547004 81.78174548 -119.57713008 42.65411118 -100.875 14.6875 C-89.87569139 0.56338781 -74.98804553 -9.21679334 -57.11328125 -11.87109375 C-37.8806283 -14.10405637 -15.94737298 -11.93284333 0 0 Z " fill="#000000" transform="translate(600.875,463.3125)"/>
<path d="M0 0 C12.74625 -0.0928125 12.74625 -0.0928125 25.75 -0.1875 C29.73658691 -0.22846802 29.73658691 -0.22846802 33.80371094 -0.27026367 C35.94726103 -0.27903835 38.09081618 -0.28667995 40.234375 -0.29296875 C41.31734863 -0.30831665 42.40032227 -0.32366455 43.51611328 -0.33947754 C56.91049006 -0.34399656 69.56177901 3.27392362 80.4375 11.3125 C83.78965174 14.82817134 85.8631938 18.6667954 88 23 C88.495 23.99 88.495 23.99 89 25 C89.26563329 28.01413288 89.23162773 31.03796541 89.25 34.0625 C89.270625 34.88427734 89.29125 35.70605469 89.3125 36.55273438 C89.36407155 44.74616446 87.83985669 51.94425212 82 58 C64.1209219 74.08218583 46.03462878 72.14961745 23.1875 72.0625 C15.535625 72.041875 7.88375 72.02125 0 72 C0 48.24 0 24.48 0 0 Z " fill="#FDFDFD" transform="translate(1045,562)"/>
<path d="M0 0 C8.8790625 -0.0309375 8.8790625 -0.0309375 17.9375 -0.0625 C19.76659912 -0.071604 21.59569824 -0.08070801 23.48022461 -0.09008789 C62.42296267 -0.20660419 62.42296267 -0.20660419 75 9 C80.94311753 14.94311753 84.13279771 22.06112438 84.5625 30.5 C84.20147614 39.31396191 79.38016257 47.09510913 73 53 C63.68925472 60.5234907 55.44279566 60.14730001 43.84765625 60.09765625 C42.73418823 60.09664917 41.62072021 60.09564209 40.47351074 60.09460449 C36.3364966 60.08939468 32.1994972 60.07543348 28.0625 60.0625 C14.1715625 60.0315625 14.1715625 60.0315625 0 60 C0 40.2 0 20.4 0 0 Z " fill="#FDFDFD" transform="translate(1045,455)"/>
<path d="M0 0 C2.25645084 2.25645084 1.18535463 7.53538219 1.1875 10.5625 C1.19974609 11.44486328 1.21199219 12.32722656 1.22460938 13.23632812 C1.25008083 24.72395534 -2.21413468 37.21546307 -9.37109375 46.4140625 C-19.69368944 56.4643595 -33.11587947 60.2814378 -47.06738281 60.3190918 C-56.27375312 60.17541606 -63.5030103 57.65167993 -70 51 C-73.8628704 45.41478555 -74.6533039 41.28733031 -74.5625 34.5625 C-74.58634766 33.75490234 -74.61019531 32.94730469 -74.63476562 32.11523438 C-74.61578252 24.26255455 -71.16316009 18.73924733 -65.6875 13.25 C-57.44636833 5.41825501 -45.83728283 2.77240449 -34.875 1.3125 C-33.47374878 1.12252441 -33.47374878 1.12252441 -32.04418945 0.92871094 C-21.53348326 -0.36711759 -10.57274034 -0.90824009 0 0 Z " fill="#FBFBFB" transform="translate(1356,584)"/>
<path d="M0 0 C0.99 0.33 1.98 0.66 3 1 C2.67 78.88 2.34 156.76 2 237 C-0.94856373 232.5771544 -1.12458491 229.30241723 -1.11352539 224.03808594 C-1.11344986 222.83714294 -1.11337433 221.63619995 -1.11329651 220.39886475 C-1.10813522 219.10708313 -1.10297394 217.81530151 -1.09765625 216.484375 C-1.09579017 215.14487765 -1.09436716 213.80537962 -1.09336853 212.46588135 C-1.08955835 208.94777528 -1.07974091 205.42971079 -1.06866455 201.91162109 C-1.05841817 198.31869061 -1.053864 194.72575339 -1.04882812 191.1328125 C-1.03811725 184.08852471 -1.02105887 177.04426507 -1 170 C-0.34 170 0.32 170 1 170 C0.98747192 169.08942841 0.97494385 168.17885681 0.96203613 167.24069214 C0.84226596 158.50867268 0.7245187 149.77662852 0.60884857 141.04455376 C0.54936615 136.55914709 0.48919589 132.07375222 0.42724609 127.58837891 C0.35554874 122.38967646 0.2863827 117.19094433 0.21875 111.9921875 C0.20751099 111.14059807 0.19627197 110.28900864 0.18469238 109.41161346 C0.07016299 100.58301739 -0.01887243 91.75617918 0.00390625 82.92675781 C0.00555031 82.22317453 0.00719437 81.51959126 0.00888824 80.79468727 C0.01812836 77.53836618 0.03521632 74.282317 0.06237793 71.02609253 C0.06821899 69.90002594 0.07406006 68.77395935 0.08007812 67.61376953 C0.09270691 66.15803024 0.09270691 66.15803024 0.10559082 64.67288208 C0.00027454 62.00694972 -0.44454748 59.6043231 -1 57 C-1.14825996 54.32091957 -1.25531039 51.66130498 -1.31640625 48.98046875 C-1.33718735 48.2042366 -1.35796844 47.42800446 -1.37937927 46.62825012 C-1.42253021 44.98342039 -1.46358565 43.33853453 -1.50268555 41.69360352 C-1.56139648 39.23373539 -1.62677487 36.77411931 -1.69335938 34.31445312 C-1.79813122 30.32200695 -1.88483506 26.32952481 -1.95733643 22.33636475 C-1.98577972 20.77873854 -2.01682653 19.22115769 -2.05047607 17.66363525 C-2.09541817 15.45935765 -2.12607782 13.25535114 -2.15234375 11.05078125 C-2.17159912 9.78532471 -2.19085449 8.51986816 -2.21069336 7.21606445 C-2.01180698 4.18022399 -1.60970205 2.53417969 0 0 Z " fill="#1A191A" transform="translate(195,444)"/>
<path d="M0 0 C1.2098481 -0.00143509 1.2098481 -0.00143509 2.44413757 -0.00289917 C4.15310748 -0.00358036 5.86207997 -0.00173032 7.57104492 0.00244141 C10.17828247 0.00776971 12.7853461 0.00250518 15.39257812 -0.00390625 C17.0533858 -0.00324505 18.71419336 -0.00196302 20.375 0 C21.1522493 -0.00202423 21.9294986 -0.00404846 22.7303009 -0.00613403 C26.60157165 0.0104926 30.1075436 0.36755309 33.88671875 1.1328125 C36.45443801 1.20283484 38.99254461 1.22604452 41.55859375 1.1953125 C42.28161682 1.19152588 43.00463989 1.18773926 43.74957275 1.18383789 C46.04535029 1.17167615 48.3409989 1.15303062 50.63671875 1.1328125 C53.67317333 1.10631529 56.70956778 1.08630003 59.74609375 1.0703125 C60.79757599 1.05786499 60.79757599 1.05786499 61.87030029 1.04516602 C63.54267302 1.0365943 65.21517314 1.07952765 66.88671875 1.1328125 C67.38171875 1.6278125 67.38171875 1.6278125 67.88671875 2.1328125 C69.90266457 2.36709028 71.92519275 2.54617374 73.94921875 2.6953125 C75.05394531 2.77910156 76.15867187 2.86289062 77.296875 2.94921875 C78.15152344 3.00980469 79.00617188 3.07039062 79.88671875 3.1328125 C79.88671875 3.4628125 79.88671875 3.7928125 79.88671875 4.1328125 C70.05243165 5.05727048 60.27178022 5.29589006 50.40234375 5.30078125 C48.85064668 5.3040049 47.2989499 5.30736975 45.74725342 5.31086731 C42.52013443 5.31680478 39.29304202 5.31871249 36.06591797 5.31811523 C31.9519063 5.31801317 27.83806547 5.33173535 23.72409439 5.34888744 C20.52916696 5.36004939 17.33428056 5.36203326 14.13933563 5.36150551 C12.62283482 5.3626766 11.10633264 5.36704878 9.58985138 5.37483788 C1.77652912 5.4112611 -5.54218719 5.26304018 -13.11328125 3.1328125 C-8.51740667 0.06889611 -5.4052616 -0.01396807 0 0 Z " fill="#262626" transform="translate(1030.11328125,676.8671875)"/>
<path d="M0 0 C0.33 0 0.66 0 1 0 C1 42.57 1 85.14 1 129 C-1.94856373 124.5771544 -2.12458491 121.30241723 -2.11352539 116.03808594 C-2.11344986 114.83714294 -2.11337433 113.63619995 -2.11329651 112.39886475 C-2.10813522 111.10708313 -2.10297394 109.81530151 -2.09765625 108.484375 C-2.09579017 107.14487765 -2.09436716 105.80537962 -2.09336853 104.46588135 C-2.08955835 100.94777528 -2.07974091 97.42971079 -2.06866455 93.91162109 C-2.05841817 90.31869061 -2.053864 86.72575339 -2.04882812 83.1328125 C-2.03811725 76.08852471 -2.02105887 69.04426507 -2 62 C-1.34 62 -0.68 62 0 62 C0 41.54 0 21.08 0 0 Z " fill="#212022" transform="translate(196,552)"/>
<path d="M0 0 C0 0.66 0 1.32 0 2 C-2.08164018 2.36398622 -4.16540562 2.71583287 -6.25 3.0625 C-7.99023438 3.35833984 -7.99023438 3.35833984 -9.765625 3.66015625 C-13 4 -13 4 -14.83041 3.53112888 C-17.58064492 2.85785458 -20.11560117 2.85905121 -22.94781494 2.84178162 C-24.16495178 2.8319928 -25.38208862 2.82220398 -26.6361084 2.81211853 C-27.98168906 2.80621479 -29.32727013 2.80040432 -30.67285156 2.79467773 C-32.09214562 2.78509581 -33.51143685 2.77508555 -34.9307251 2.76467896 C-38.78158694 2.73765784 -42.632461 2.71663317 -46.48336506 2.69667697 C-50.50860632 2.67480018 -54.53381004 2.64741977 -58.559021 2.62062073 C-66.1803834 2.57071674 -73.80176666 2.5257694 -81.42316985 2.48259836 C-90.1002686 2.43320639 -98.77732966 2.37829553 -107.45439196 2.32291877 C-125.30289298 2.20913394 -143.15142957 2.10228728 -161 2 C-161 1.67 -161 1.34 -161 1 C-140.59882581 0.86946136 -120.19765069 0.73906813 -99.79647446 0.60884857 C-90.32411404 0.54838363 -80.85175393 0.48787089 -71.37939453 0.42724609 C-63.12443961 0.37441303 -54.86948412 0.32166916 -46.61452794 0.26903296 C-42.24257824 0.24115289 -37.87062884 0.2132278 -33.49868011 0.18519592 C-29.38493989 0.15882102 -25.27119892 0.13256527 -21.15745735 0.10640144 C-19.64655848 0.09677087 -18.13565988 0.08709652 -16.62476158 0.07737541 C-14.56362352 0.06412058 -12.50248452 0.05102253 -10.44134521 0.03796387 C-9.2872604 0.03058952 -8.13317558 0.02321518 -6.9441185 0.01561737 C-4.62943905 0.00333892 -2.31471202 0 0 0 Z " fill="#666768" transform="translate(359,680)"/>
<path d="M0 0 C2.57169697 2.13550585 3.89617038 3.24758508 4.36230469 6.62548828 C4.29946289 7.59728027 4.23662109 8.56907227 4.171875 9.5703125 C4.11386719 10.63121094 4.05585937 11.69210937 3.99609375 12.78515625 C3.91488281 13.88730469 3.83367187 14.98945312 3.75 16.125 C3.68425781 17.23488281 3.61851563 18.34476563 3.55078125 19.48828125 C3.42849419 21.53721334 3.29752286 23.58565776 3.15527344 25.63330078 C3.05992187 27.08666258 3 28.54351367 3 30 C2.35466922 32.33932406 1.68939809 34.67328146 1 37 C0.67 37 0.34 37 0 37 C-2.32199867 24.14607877 -2.5472198 12.82707114 0 0 Z " fill="#222222" transform="translate(1221,602)"/>
<path d="M0 0 C0.66 0 1.32 0 2 0 C2.495 2.97 2.495 2.97 3 6 C-7.37594501 6.13406335 -17.58479354 5.75664225 -27.9375 5 C-29.31441966 4.90316884 -30.69137283 4.80681294 -32.06835938 4.7109375 C-35.37926392 4.47859332 -38.68975751 4.24156258 -42 4 C-42 3.67 -42 3.34 -42 3 C-35.82643079 1.55546743 -29.53322692 1.6296278 -23.22558594 1.44238281 C-21.0068538 1.37520751 -18.78866472 1.29738012 -16.5703125 1.21875 C-15.15106198 1.1738327 -13.7317915 1.12954089 -12.3125 1.0859375 C-11.02988281 1.0451709 -9.74726562 1.0044043 -8.42578125 0.96240234 C-5.43961921 0.99517522 -2.88748784 1.28571943 0 2 C0 1.34 0 0.68 0 0 Z " fill="#808082" transform="translate(1913,679)"/>
<path d="M0 0 C0.66 0 1.32 0 2 0 C2 8.25 2 16.5 2 25 C1.01 25.33 0.02 25.66 -1 26 C-1 23.36 -1 20.72 -1 18 C-1.66 18 -2.32 18 -3 18 C-4.21509353 11.07396686 -4.05158474 6.0773771 0 0 Z " fill="#353536" transform="translate(48,444)"/>
<path d="M0 0 C0 0.66 0 1.32 0 2 C-1.42231017 3.18525848 -2.84884114 4.36584072 -4.296875 5.51953125 C-6.03024507 7.02629101 -7.42224549 8.5989677 -8.875 10.375 C-10.96499271 12.90319965 -13.13146334 15.06091336 -15.63671875 17.17578125 C-20.27902428 21.18591587 -24.61266561 25.46504224 -28.9375 29.8125 C-29.70384766 30.57498047 -30.47019531 31.33746094 -31.25976562 32.12304688 C-31.98744141 32.85201172 -32.71511719 33.58097656 -33.46484375 34.33203125 C-34.120896 34.98921143 -34.77694824 35.6463916 -35.45288086 36.32348633 C-37.08270479 37.93380588 -37.08270479 37.93380588 -38 40 C-38.66 40 -39.32 40 -40 40 C-40 40.66 -40 41.32 -40 42 C-41.65002828 43.35386936 -43.3174387 44.68678142 -45 46 C-45.33 46.66 -45.66 47.32 -46 48 C-46.66 48 -47.32 48 -48 48 C-48.33 48.66 -48.66 49.32 -49 50 C-49 47 -49 47 -47.22915649 44.85493469 C-45.98578018 43.61250252 -45.98578018 43.61250252 -44.71728516 42.3449707 C-44.26207993 41.88611481 -43.80687469 41.42725891 -43.33787537 40.95449829 C-41.82891785 39.43742443 -40.30935446 37.93149006 -38.7890625 36.42578125 C-37.73959115 35.37682833 -36.69063729 34.32735743 -35.6421814 33.27738953 C-33.4425732 31.0778711 -31.23788146 28.8836193 -29.02929688 26.69311523 C-26.19368196 23.88020153 -23.3692873 21.0563349 -20.5483799 18.22868061 C-18.3835334 16.06049848 -16.21374082 13.89732376 -14.04230881 11.73573875 C-12.9987369 10.69602509 -11.95652101 9.6549486 -10.91566849 8.61251259 C-9.46248136 7.15895606 -8.00299165 5.71204959 -6.54150391 4.2668457 C-5.71099518 3.44094437 -4.88048645 2.61504303 -4.02481079 1.76411438 C-2 0 -2 0 0 0 Z " fill="#19191A" transform="translate(260,213)"/>
<path d="M0 0 C-0.14566406 1.01320313 -0.29132812 2.02640625 -0.44140625 3.0703125 C-0.94150802 7.05882187 -1.21918676 11.04281826 -1.46484375 15.0546875 C-1.54283203 16.32828125 -1.62082031 17.601875 -1.70117188 18.9140625 C-1.82018039 20.90868448 -1.93906871 22.90332562 -2.04956055 24.8984375 C-2.15877922 26.84684174 -2.28036788 28.79454029 -2.40234375 30.7421875 C-2.46929443 31.8957373 -2.53624512 33.04928711 -2.60522461 34.23779297 C-3 37 -3 37 -5 39 C-5.26811705 34.57205268 -5.50080525 30.14402477 -5.7019043 25.71264648 C-5.77504956 24.20792081 -5.85758182 22.70361918 -5.94995117 21.19995117 C-6.80591719 7.08820541 -6.80591719 7.08820541 -3.57421875 2.47265625 C-1 0 -1 0 0 0 Z " fill="#CCCDCE" transform="translate(55,435)"/>
<path d="M0 0 C1.74627478 2.61941217 2.38722388 4.03824877 3 7 C3.66 5.68 4.32 4.36 5 3 C5.05479286 4.8538252 5.09314594 6.7081388 5.125 8.5625 C5.14820313 9.59503906 5.17140625 10.62757813 5.1953125 11.69140625 C5 15 5 15 4.03125 18 C2.18255963 23.91925396 2.52383184 30.29508584 2.375 36.4375 C2.33632812 37.74138672 2.29765625 39.04527344 2.2578125 40.38867188 C2.16393299 43.59230999 2.07824846 46.79594832 2 50 C1.67 50 1.34 50 1 50 C1.00523682 48.97527588 1.01047363 47.95055176 1.01586914 46.89477539 C1.03391969 43.10604724 1.0454322 39.31732291 1.05493164 35.52856445 C1.05997174 33.88630536 1.06680378 32.24405077 1.07543945 30.60180664 C1.08751926 28.24624521 1.09323139 25.89074291 1.09765625 23.53515625 C1.10281754 22.79660904 1.10797882 22.05806183 1.11329651 21.2971344 C1.1134925 19.53101912 1.06194719 17.76502854 1 16 C0.67 15.67 0.34 15.34 0 15 C-0.26203343 12.86006029 -0.46018841 10.71211406 -0.625 8.5625 C-0.72039062 7.38816406 -0.81578125 6.21382813 -0.9140625 5.00390625 C-1 2 -1 2 0 0 Z " fill="#111010" transform="translate(1456,481)"/>
<path d="M0 0 C2.64 0.99 5.28 1.98 8 3 C8 2.34 8 1.68 8 1 C8.66 1 9.32 1 10 1 C10.12375 1.598125 10.2475 2.19625 10.375 2.8125 C11.41214461 6.44250612 12.8822363 7.92149087 16 10 C11.05 10 6.1 10 1 10 C-1 4 -1 4 0 0 Z " fill="#282828" transform="translate(1149,535)"/>
<path d="M0 0 C0.99 0.33 1.98 0.66 3 1 C3 2.65 3 4.3 3 6 C1.61217515 6.8466034 0.21430603 7.67675339 -1.1875 8.5 C-1.96480469 8.9640625 -2.74210937 9.428125 -3.54296875 9.90625 C-6.24103386 11.10729647 -8.0806982 11.20741043 -11 11 C-10.67 9.68 -10.34 8.36 -10 7 C-8.35 6.67 -6.7 6.34 -5 6 C-5 4.35 -5 2.7 -5 1 C-4.01 1.33 -3.02 1.66 -2 2 C-1.34 1.34 -0.68 0.68 0 0 Z " fill="#ECEDEE" transform="translate(1521,481)"/>
<path d="M0 0 C0.66 0 1.32 0 2 0 C2.06058594 0.79664063 2.12117188 1.59328125 2.18359375 2.4140625 C2.79667866 10.24332697 2.79667866 10.24332697 4 18 C1.21634252 17.71203543 0.12404334 17.12404334 -1.875 15.125 C-3.61628112 10.28810801 -2.34008472 5.87006397 -1 1 C-0.67 0.67 -0.34 0.34 0 0 Z " fill="#BABBBC" transform="translate(51,889)"/>
<path d="M0 0 C-0.33 0.66 -0.66 1.32 -1 2 C-2.87945313 1.98259766 -2.87945313 1.98259766 -4.796875 1.96484375 C-6.44791517 1.95546284 -8.09895696 1.94636296 -9.75 1.9375 C-10.575 1.92912109 -11.4 1.92074219 -12.25 1.91210938 C-13.04921875 1.90888672 -13.8484375 1.90566406 -14.671875 1.90234375 C-15.4050293 1.89710693 -16.13818359 1.89187012 -16.89355469 1.88647461 C-19.0093172 1.93306863 -19.0093172 1.93306863 -21.04101562 2.51367188 C-24.25668738 3.31197922 -27.48104776 2.83130798 -30.75 2.5625 C-31.44738281 2.51029297 -32.14476562 2.45808594 -32.86328125 2.40429688 C-34.57596203 2.27525928 -36.28805066 2.13840386 -38 2 C-38 1.67 -38 1.34 -38 1 C-31.73238933 -0.42830327 -25.40164936 -0.40425347 -19 -0.625 C-17.72898437 -0.6765625 -16.45796875 -0.728125 -15.1484375 -0.78125 C-13.92382812 -0.82507813 -12.69921875 -0.86890625 -11.4375 -0.9140625 C-10.32246094 -0.9548291 -9.20742187 -0.9955957 -8.05859375 -1.03759766 C-5.22057515 -1.00271141 -2.75170525 -0.66294575 0 0 Z " fill="#989A9B" transform="translate(1909,681)"/>
<path d="M0 0 C0 0.66 0 1.32 0 2 C-2.08164018 2.36398622 -4.16540562 2.71583287 -6.25 3.0625 C-7.99023438 3.35833984 -7.99023438 3.35833984 -9.765625 3.66015625 C-13 4 -13 4 -14.78125 3.54101562 C-17.77667232 2.81061775 -20.65369465 2.77817604 -23.734375 2.68359375 C-25.02988281 2.64169922 -26.32539063 2.59980469 -27.66015625 2.55664062 C-29.02343476 2.51683329 -30.38671606 2.47712094 -31.75 2.4375 C-33.12891875 2.39427726 -34.50782526 2.35066179 -35.88671875 2.30664062 C-39.2577119 2.20056042 -42.62877826 2.0985015 -46 2 C-46 1.67 -46 1.34 -46 1 C-40.09181144 0.85697406 -34.18360825 0.71457428 -28.27539062 0.57275391 C-26.26562085 0.52442342 -24.25585518 0.47592205 -22.24609375 0.42724609 C-19.35678147 0.35729733 -16.46745497 0.28796378 -13.578125 0.21875 C-12.68007141 0.19687622 -11.78201782 0.17500244 -10.85675049 0.15246582 C-10.01618103 0.13244507 -9.17561157 0.11242432 -8.30957031 0.09179688 C-7.20370575 0.06514954 -7.20370575 0.06514954 -6.07550049 0.03796387 C-4.05063283 0.00092615 -2.02520637 0 0 0 Z " fill="#5E5E5F" transform="translate(359,680)"/>
<path d="M0 0 C3.93345152 1.31115051 4.32374076 2.84212778 6.25 6.4375 C7.06210938 7.92056641 7.06210938 7.92056641 7.890625 9.43359375 C8.25671875 10.28050781 8.6228125 11.12742187 9 12 C8.67 12.66 8.34 13.32 8 14 C5.03 13.67 2.06 13.34 -1 13 C-0.67 12.01 -0.34 11.02 0 10 C0.66 9.67 1.32 9.34 2 9 C2 5.20442119 1.49821059 3.37097383 0 0 Z " fill="#1E1D1E" transform="translate(1905,667)"/>
<path d="M0 0 C0.33 0 0.66 0 1 0 C1 4.29 1 8.58 1 13 C0.01 13 -0.98 13 -2 13 C-2 12.34 -2 11.68 -2 11 C-4.76264289 10.40267181 -7.16032769 10 -10 10 C-6.66666667 6.66666667 -3.33333333 3.33333333 0 0 Z " fill="#E9EAEB" transform="translate(1356,658)"/>
<path d="M0 0 C1.22126839 0.03541649 1.22126839 0.03541649 2.46720886 0.07154846 C5.05515574 0.14782214 7.64277557 0.23200143 10.23046875 0.31640625 C11.99021863 0.36966333 13.74998424 0.42240345 15.50976562 0.47460938 C19.81270518 0.60338784 24.11536892 0.73925463 28.41796875 0.87890625 C28.41796875 1.20890625 28.41796875 1.53890625 28.41796875 1.87890625 C23.07979794 2.07145789 17.74141001 2.25013423 12.40234375 2.41601562 C10.58646218 2.47438325 8.77069792 2.53652841 6.95507812 2.60253906 C4.34396727 2.69681331 1.7327348 2.77745543 -0.87890625 2.85546875 C-1.68946472 2.8876651 -2.50002319 2.91986145 -3.33514404 2.95303345 C-10.29788657 3.13771938 -10.29788657 3.13771938 -13.58203125 0.87890625 C-9.04226613 -0.29455784 -4.64417811 -0.16024493 0 0 Z " fill="#3B3A3B" transform="translate(1875.58203125,679.12109375)"/>
<path d="M0 0 C0.66 0 1.32 0 2 0 C4.65526677 7.96580031 3.13374025 17.78038318 2 26 C0 24 0 24 -0.22705078 21.56982422 C-0.21657715 20.5748291 -0.20610352 19.57983398 -0.1953125 18.5546875 C-0.18886719 17.47832031 -0.18242187 16.40195312 -0.17578125 15.29296875 C-0.15902344 14.16503906 -0.14226562 13.03710938 -0.125 11.875 C-0.11597656 10.73933594 -0.10695312 9.60367188 -0.09765625 8.43359375 C-0.07403098 5.62218701 -0.04109013 2.81119702 0 0 Z " fill="#171617" transform="translate(194,614)"/>
<path d="M0 0 C6.27 0 12.54 0 19 0 C19 0.33 19 0.66 19 1 C17.35 1 15.7 1 14 1 C14 1.66 14 2.32 14 3 C9.71 3 5.42 3 1 3 C0.67 2.01 0.34 1.02 0 0 Z " fill="#EFF1F2" transform="translate(1599,682)"/>
<path d="M0 0 C3.125 -0.1875 3.125 -0.1875 6 0 C5.8125 2.3125 5.8125 2.3125 5 5 C0.96551724 8 0.96551724 8 -2 8 C-2.20086443 4.28400809 -2.1519437 3.22791555 0 0 Z " fill="#444445" transform="translate(1751,560)"/>
<path d="M0 0 C1.50433594 0.01353516 1.50433594 0.01353516 3.0390625 0.02734375 C3.80992188 0.03894531 4.58078125 0.05054688 5.375 0.0625 C5.045 1.3825 4.715 2.7025 4.375 4.0625 C-6.18308656 4.24701025 -6.18308656 4.24701025 -10.625 3.0625 C-6.58365069 0.36826713 -4.81510472 -0.05598959 0 0 Z " fill="#151414" transform="translate(1027.625,676.9375)"/>
<path d="M0 0 C0.33 0 0.66 0 1 0 C1 8.25 1 16.5 1 25 C-2.75874848 19.36187727 -1.99147885 14.00668083 -1.0625 7.625 C-0.96259766 6.88894531 -0.86269531 6.15289063 -0.75976562 5.39453125 C-0.51441035 3.59525923 -0.25830463 1.79745869 0 0 Z " fill="#2D2C2E" transform="translate(196,656)"/>
<path d="M0 0 C0 1.32 0 2.64 0 4 C-0.66 4 -1.32 4 -2 4 C-2 4.66 -2 5.32 -2 6 C-3.65 5.67 -5.3 5.34 -7 5 C-7.33 3.35 -7.66 1.7 -8 0 C-4.94736336 -0.98120464 -3.05263664 -0.98120464 0 0 Z " fill="#BEBEBF" transform="translate(1159,532)"/>
<path d="M0 0 C1.89492187 0.15275391 1.89492187 0.15275391 3.828125 0.30859375 C4.79234375 0.39238281 5.7565625 0.47617187 6.75 0.5625 C6.75 1.5525 6.75 2.5425 6.75 3.5625 C0.15 3.5625 -6.45 3.5625 -13.25 3.5625 C-11.25 0.5625 -11.25 0.5625 -9.578125 -0.15234375 C-6.32782565 -0.55045089 -3.26016705 -0.27168059 0 0 Z " fill="#313031" transform="translate(1058.25,451.4375)"/>
<path d="M0 0 C0.33 0.66 0.66 1.32 1 2 C1.66 2.33 2.32 2.66 3 3 C2.67 3.33 2.34 3.66 2 4 C1.84285346 5.63256758 1.74914586 7.27135338 1.68359375 8.91015625 C1.64169922 9.89951172 1.59980469 10.88886719 1.55664062 11.90820312 C1.49766602 13.46958008 1.49766602 13.46958008 1.4375 15.0625 C1.39431641 16.10728516 1.35113281 17.15207031 1.30664062 18.22851562 C1.20018775 20.81886884 1.0981724 23.40932186 1 26 C-1 24 -1 24 -1.24291992 21.89282227 C-1.23881104 21.04260498 -1.23470215 20.1923877 -1.23046875 19.31640625 C-1.22853516 18.38892578 -1.22660156 17.46144531 -1.22460938 16.50585938 C-1.21236328 15.53455078 -1.20011719 14.56324219 -1.1875 13.5625 C-1.18685547 12.59505859 -1.18621094 11.62761719 -1.18554688 10.63085938 C-1.14052002 3.42156007 -1.14052002 3.42156007 0 0 Z " fill="#141313" transform="translate(194,445)"/>
<path d="M0 0 C0.433125 0.45375 0.86625 0.9075 1.3125 1.375 C3.10798342 3.20024334 3.10798342 3.20024334 6 5 C1.05 5 -3.9 5 -9 5 C-8.67 4.01 -8.34 3.02 -8 2 C-6.865625 1.855625 -5.73125 1.71125 -4.5625 1.5625 C-1.19222799 1.38828522 -1.19222799 1.38828522 0 0 Z " fill="#7F7F80" transform="translate(1159,540)"/>
<path d="M0 0 C1.32 0.33 2.64 0.66 4 1 C3.0990099 6.66336634 3.0990099 6.66336634 2.375 9.125 C1.92662435 11.36687823 2.3071698 12.84452828 3 15 C2.01 15.33 1.02 15.66 0 16 C0 10.72 0 5.44 0 0 Z " fill="#100F10" transform="translate(1699,389)"/>
<path d="M0 0 C0.66 0 1.32 0 2 0 C2.33 1.98 2.66 3.96 3 6 C-0.3 5.67 -3.6 5.34 -7 5 C-6.01 4.01 -5.02 3.02 -4 2 C-2.68 2 -1.36 2 0 2 C0 1.34 0 0.68 0 0 Z " fill="#515153" transform="translate(1913,679)"/>
<path d="M0 0 C0.66 0 1.32 0 2 0 C2 2.97 2 5.94 2 9 C1.67 7.68 1.34 6.36 1 5 C0.34 5 -0.32 5 -1 5 C-1 7.97 -1 10.94 -1 14 C-1.66 13.34 -2.32 12.68 -3 12 C-2.79296875 9.43359375 -2.79296875 9.43359375 -2.1875 6.4375 C-1.99542969 5.44621094 -1.80335937 4.45492187 -1.60546875 3.43359375 C-1 1 -1 1 0 0 Z " fill="#999A9B" transform="translate(51,889)"/>
<path d="M0 0 C2.475 0.495 2.475 0.495 5 1 C5 4 5 4 3 6.1875 C2.34 6.785625 1.68 7.38375 1 8 C0 7 0 7 -0.0625 3.4375 C-0.041875 2.303125 -0.02125 1.16875 0 0 Z " fill="#F0F2F3" transform="translate(1518,476)"/>
<path d="M0 0 C0.99 0.33 1.98 0.66 3 1 C2.67 4.96 2.34 8.92 2 13 C1.34 13 0.68 13 0 13 C0 8.66666667 0 4.33333333 0 0 Z " fill="#2A292A" transform="translate(195,444)"/>
<path d="M0 0 C0.33 0 0.66 0 1 0 C1.33 3.3 1.66 6.6 2 10 C-2.875 5.375 -2.875 5.375 -4 2 C-2.68 2 -1.36 2 0 2 C0 1.34 0 0.68 0 0 Z " fill="#1B1A1A" transform="translate(47,891)"/>
<path d="M0 0 C0 0.66 0 1.32 0 2 C-2.08042163 2.39083065 -4.16452339 2.7621087 -6.25 3.125 C-7.99023438 3.43824219 -7.99023438 3.43824219 -9.765625 3.7578125 C-13.03554316 4.00266144 -14.32492834 3.78779541 -17 2 C-14.91727106 1.66291092 -12.83378963 1.33046884 -10.75 1 C-9.58984375 0.814375 -8.4296875 0.62875 -7.234375 0.4375 C-4 0 -4 0 0 0 Z " fill="#333334" transform="translate(359,680)"/>
<path d="M0 0 C0.33 0.66 0.66 1.32 1 2 C1.66 2 2.32 2 3 2 C3 3.98 3 5.96 3 8 C2.34 8 1.68 8 1 8 C1 8.66 1 9.32 1 10 C0.34 10 -0.32 10 -1 10 C-0.67 6.7 -0.34 3.4 0 0 Z " fill="#1E1E1E" transform="translate(45,448)"/>
<path d="M0 0 C-1.58294782 0.05437607 -3.16644256 0.09296271 -4.75 0.125 C-5.63171875 0.14820313 -6.5134375 0.17140625 -7.421875 0.1953125 C-10.1135858 -0.00860498 -11.69904974 -0.63448279 -14 -2 C-8.64887908 -3.41647318 -4.64323847 -3.09549231 0 0 Z " fill="#5B5C5D" transform="translate(1876,682)"/>
<path d="M0 0 C2.0374763 0.22858114 4.08040303 0.41024278 6.125 0.5625 C7.76855469 0.68818359 7.76855469 0.68818359 9.4453125 0.81640625 C10.28835938 0.87699219 11.13140625 0.93757812 12 1 C12 1.33 12 1.66 12 2 C6.06 2 0.12 2 -6 2 C-6 1.34 -6 0.68 -6 0 C-2.25 -1.125 -2.25 -1.125 0 0 Z " fill="#2B2A2B" transform="translate(1098,679)"/>
<path d="M0 0 C-0.33 0.66 -0.66 1.32 -1 2 C-5.16138263 2.08159574 -8.9472484 1.98248524 -13 1 C-13 0.67 -13 0.34 -13 0 C-4.57142857 -1.28571429 -4.57142857 -1.28571429 0 0 Z " fill="#CACACB" transform="translate(1909,681)"/>
<path d="M0 0 C0.66 0 1.32 0 2 0 C2 4.62 2 9.24 2 14 C1.67 14 1.34 14 1 14 C1 11.36 1 8.72 1 6 C0.34 6 -0.32 6 -1 6 C-0.67 4.02 -0.34 2.04 0 0 Z " fill="#141313" transform="translate(46,456)"/>
<path d="M0 0 C0.99 0.33 1.98 0.66 3 1 C3.1953125 7.0546875 3.1953125 7.0546875 3 9 C2.34 9.66 1.68 10.32 1 11 C0.83273455 9.35422741 0.66620388 7.70838013 0.5 6.0625 C0.4071875 5.14597656 0.314375 4.22945312 0.21875 3.28515625 C0 1 0 1 0 0 Z " fill="#0F0F0F" transform="translate(1222,634)"/>
<path d="M0 0 C0.33 0 0.66 0 1 0 C0.67 2.64 0.34 5.28 0 8 C-1.65 8.33 -3.3 8.66 -5 9 C-3.75471468 5.55151758 -2.38532951 2.80016942 0 0 Z " fill="#9FA0A0" transform="translate(54,435)"/>
<path d="M0 0 C0.66 0.99 1.32 1.98 2 3 C1.01 4.98 0.02 6.96 -1 9 C-1.99 9 -2.98 9 -4 9 C-2.80100302 5.9168649 -1.52299523 2.93720508 0 0 Z " fill="#222222" transform="translate(67,410)"/>
<path d="M0 0 C0.33 0 0.66 0 1 0 C2.42857143 8.57142857 2.42857143 8.57142857 0 12 C-0.66 11.34 -1.32 10.68 -2 10 C-1.7578125 7.6171875 -1.7578125 7.6171875 -1.125 4.875 C-0.92132812 3.96492187 -0.71765625 3.05484375 -0.5078125 2.1171875 C-0.34023437 1.41851563 -0.17265625 0.71984375 0 0 Z " fill="#171616" transform="translate(1196,606)"/>
<path d="M0 0 C0.90105469 0.11085938 1.80210938 0.22171875 2.73046875 0.3359375 C3.76107422 0.47902344 3.76107422 0.47902344 4.8125 0.625 C1.6375906 2.5328584 -0.29335211 2.7859041 -3.9375 2.25 C-4.73671875 2.13914062 -5.5359375 2.02828125 -6.359375 1.9140625 C-6.96265625 1.81867187 -7.5659375 1.72328125 -8.1875 1.625 C-4.73535147 -0.67643236 -3.95270676 -0.51333854 0 0 Z " fill="#272729" transform="translate(1025.1875,678.375)"/>
<path d="M0 0 C0.66 0.99 1.32 1.98 2 3 C2.66 3.33 3.32 3.66 4 4 C-0.75 7 -0.75 7 -3 7 C-3 6.01 -3 5.02 -3 4 C-2.34 4 -1.68 4 -1 4 C-0.67 2.68 -0.34 1.36 0 0 Z " fill="#8A8B8C" transform="translate(1752,561)"/>
<path d="M0 0 C0.99 0.66 1.98 1.32 3 2 C2.67 2.99 2.34 3.98 2 5 C0.35 5 -1.3 5 -3 5 C-2.625 3.0625 -2.625 3.0625 -2 1 C-1.34 0.67 -0.68 0.34 0 0 Z " fill="#939496" transform="translate(1513,487)"/>
<path d="M0 0 C0.66 0 1.32 0 2 0 C2.33 2.31 2.66 4.62 3 7 C2.01 7.33 1.02 7.66 0 8 C0 5.36 0 2.72 0 0 Z " fill="#EAEBEC" transform="translate(50,894)"/>
<path d="M0 0 C4.29 0 8.58 0 13 0 C13 0.33 13 0.66 13 1 C11.58366664 1.16947579 10.16691467 1.33545507 8.75 1.5 C7.56664062 1.63921875 7.56664062 1.63921875 6.359375 1.78125 C4 2 4 2 0 2 C0 1.34 0 0.68 0 0 Z " fill="#CACBCA" transform="translate(1599,682)"/>
<path d="M0 0 C1.98 0.66 3.96 1.32 6 2 C6 2.99 6 3.98 6 5 C4.35 4.67 2.7 4.34 1 4 C0.67 2.68 0.34 1.36 0 0 Z " fill="#E4E5E5" transform="translate(1151,533)"/>
<path d="M0 0 C1.41377341 2.63904371 2.37240135 5.07120629 3 8 C1.35 8.33 -0.3 8.66 -2 9 C-2 8.01 -2 7.02 -2 6 C-1.34 5.67 -0.68 5.34 0 5 C0 3.35 0 1.7 0 0 Z " fill="#D8D8D8" transform="translate(1516,482)"/>
<path d="M0 0 C0.33 1.32 0.66 2.64 1 4 C0.01 4.33 -0.98 4.66 -2 5 C-2 5.99 -2 6.98 -2 8 C-2.66 8 -3.32 8 -4 8 C-4.33 8.66 -4.66 9.32 -5 10 C-5 6.60406522 -4.47834052 5.93380119 -2.5 3.3125 C-2.0359375 2.68988281 -1.571875 2.06726563 -1.09375 1.42578125 C-0.7328125 0.95527344 -0.371875 0.48476563 0 0 Z " fill="#1A1A1A" transform="translate(78,394)"/>
<path d="M0 0 C3 1 3 1 4.1875 3.0625 C4.455625 3.701875 4.72375 4.34125 5 5 C4.01 5.99 3.02 6.98 2 8 C2 7.01 2 6.02 2 5 C1.37400383 3.31763529 0.71247732 1.6476038 0 0 Z " fill="#161516" transform="translate(1905,667)"/>
<path d="M0 0 C0.99 0.33 1.98 0.66 3 1 C3 1.99 3 2.98 3 4 C2.01 4.33 1.02 4.66 0 5 C-0.66 3.68 -1.32 2.36 -2 1 C-1.34 0.67 -0.68 0.34 0 0 Z " fill="#232324" transform="translate(625,670)"/>
</svg>
